<svg width="36" height="39" viewBox="0 0 36 39" fill="none" xmlns="http://www.w3.org/2000/svg">
<path d="M22.3423 16.693C23.3319 18.7543 24.8021 20.463 26.3163 21.9288C27.0735 22.6617 27.8421 23.3344 28.5675 23.96C28.6852 24.0616 28.8018 24.1619 28.9171 24.261C29.512 24.7729 30.07 25.2529 30.5603 25.7101C31.1457 26.256 31.6321 26.7671 31.9678 27.2576C32.3036 27.7482 32.4856 28.2139 32.4695 28.6701C32.4533 29.1251 32.2398 29.5796 31.7656 30.0478C31.2907 30.5167 30.5568 30.9969 29.5065 31.5011C21.1099 35.532 11.1171 32.1582 7.18583 23.969C3.25455 15.7798 6.87164 5.87253 15.2683 1.84165C16.3186 1.33745 17.1522 1.06512 17.8151 0.98785C18.4771 0.910694 18.9653 1.02829 19.3304 1.30025C19.6964 1.57297 19.946 2.00627 20.1188 2.57508C20.2916 3.14384 20.3861 3.84297 20.446 4.64117C20.4961 5.30972 20.5217 6.04537 20.549 6.82968C20.5543 6.98157 20.5596 7.13528 20.5652 7.29068C20.5998 8.24799 20.6439 9.26843 20.7423 10.3176C20.939 12.4159 21.3528 14.6317 22.3423 16.693Z" fill="url(#paint0_linear_2096_167)" stroke="black" stroke-width="0.1"/>
<path d="M13.1477 16.5267C14.1931 14.4935 14.6861 12.2997 14.9635 10.2197C15.1022 9.17961 15.1871 8.16741 15.2601 7.21774C15.2719 7.06358 15.2835 6.91109 15.2949 6.76041C15.3537 5.98234 15.4089 5.25251 15.4851 4.58958C15.5761 3.79812 15.6967 3.10529 15.8879 2.54278C16.0792 1.98017 16.3394 1.55288 16.7063 1.28657C17.072 1.02114 17.5504 0.910712 18.189 0.995431C18.8288 1.0803 19.6264 1.36078 20.6249 1.87416C28.6069 5.97801 31.7112 15.8547 27.5568 23.935C23.4025 32.0152 13.5636 35.2373 5.58157 31.1335C4.58304 30.6201 3.89084 30.1346 3.44957 29.6637C3.00909 29.1936 2.82051 28.7402 2.82362 28.2884C2.82674 27.8351 3.02283 27.3748 3.36911 26.8919C3.71532 26.409 4.2086 25.9078 4.79935 25.3733C5.29417 24.9256 5.85565 24.456 6.45423 23.9555C6.57013 23.8585 6.68744 23.7604 6.80591 23.6611C7.53582 23.0492 8.30963 22.3912 9.07479 21.6732C10.605 20.2373 12.1024 18.5599 13.1477 16.5267Z" fill="url(#paint1_linear_2096_167)" stroke="black" stroke-width="0.1"/>
<defs>
<linearGradient id="paint0_linear_2096_167" x1="22.0231" y1="7.39196" x2="21.2273" y2="33.5955" gradientUnits="userSpaceOnUse">
<stop stop-color="#5057FF"/>
<stop offset="1" stop-color="#FF50E3"/>
</linearGradient>
<linearGradient id="paint1_linear_2096_167" x1="27.3212" y1="38.0503" x2="21.829" y2="5.24691" gradientUnits="userSpaceOnUse">
<stop stop-color="#FF50E3"/>
<stop offset="1" stop-color="#5057FF"/>
</linearGradient>
</defs>
</svg>
